<svg xmlns="http://www.w3.org/2000/svg" viewBox="0 0 300 77.183"><path fill="#20367c" d="M0 40.735h35.793v35.923H0zM0 1.57h35.793v35.877H0zM39.077 40.735c19.753 0 35.794 16.078 35.794 35.923H39.077zM39.077 37.447c19.753 0 35.794-16.082 35.794-35.877H39.077z"/><path fill="#727478" d="M99.096 64.78c3.712.62 4.95 2.242 4.95 5.677v.524c0 3.816-1.853 5.725-7.9 5.725-1.237 0-3.572 0-7.284-.048l.57-2.814c3.192.095 4.664.047 6.714.047 3.902 0 4.81-.62 4.81-3.005 0-2.1-.432-2.814-3.053-3.292l-3.997-.62c-3.997-.668-4.95-2.433-4.95-5.534v-.572c0-3.435 1.955-5.582 7.76-5.582 2.234 0 3.376 0 6.714.096l-.571 2.767c-2.811-.048-4.62-.048-6.428-.048-3.521 0-4.333.668-4.333 2.91 0 1.86.38 2.672 2.855 3.053zM123.226 55.382l-.57 2.767h-7.095v18.51h-3.09v-18.51h-7.474l.571-2.767zM124.844 68.072v-12.69h3.141v12.737c0 5.01.907 6.345 5.044 6.345 4.144 0 5.095-1.336 5.095-6.345V55.382h3.097v12.69c0 5.867-1.384 9.11-8.192 9.11-6.802 0-8.185-3.243-8.185-9.11zM148.454 73.844h4.568c4.334 0 5.857-1.193 5.857-6.87V64.97c0-5.676-1.523-6.821-5.857-6.821h-4.568zm-3.14-18.462h7.708c7.043 0 9.137 3.196 9.137 9.397v2.433c0 6.25-2.094 9.446-9.137 9.446h-7.709zM165.776 55.382h3.147v21.276h-3.147zM187.482 67.212v-2.48c0-6.106-1.091-7.204-5.806-7.204-4.758 0-5.805 1.003-5.805 7.204v2.48c0 6.155 1.047 7.252 5.805 7.252 4.715 0 5.806-1.002 5.806-7.252zm-14.898.144v-2.72c0-6.153 1.383-9.827 9.092-9.827 7.52 0 9.093 3.34 9.093 9.827v2.72c0 6.106-1.428 9.827-9.093 9.827-7.57 0-9.092-3.387-9.092-9.827zM203.478 64.78c3.756.62 4.993 2.242 4.993 5.677v.524c0 3.816-1.852 5.725-7.944 5.725-1.192 0-3.527 0-7.24-.048l.527-2.814c3.186.095 4.708.047 6.713.047 3.947 0 4.804-.62 4.804-3.005 0-2.1-.381-2.814-2.995-3.292l-4.048-.62c-3.998-.668-4.95-2.433-4.95-5.534v-.572c0-3.435 2-5.582 7.76-5.582 2.234 0 3.427 0 6.707.096l-.52 2.767c-2.855-.048-4.664-.048-6.428-.048-3.521 0-4.378.668-4.378 2.91 0 1.86.381 2.672 2.856 3.053z"/><path fill="#20367c" d="M96.907 16.838L110.803 1.57h7.715l-15.66 16.985 17.418 18.892h-8.807L96.907 21.225v16.222H90.15V1.57h6.757z"/><path fill="#20367c" d="M124.464 21.798h10.856v-1.196c0-3.86-1.193-5.246-5.38-5.246-4.62 0-5.476 1.335-5.476 6.442zm0 4.769c0 4.865.856 5.965 5.71 5.965 2.38 0 5.19.044 9.619-.096l-1.002 5.011c-3.757.191-5.762.14-8.903.14-9.517 0-11.94-4.388-11.94-11.878v-2.811c0-8.063 2.613-12.451 12.13-12.451 8.808 0 11.473 4.101 11.473 9.774v.858c0 4.63-.997 5.488-3.998 5.488zM146.214 41.021c3.807.19 5.907.146 8.331.146 4.569 0 6.237-1.29 6.237-6.155v-.528c-1.383 1.1-2.715 1.959-7.138 1.959-6.522 0-10.044-2.29-10.044-8.54V11.254h6.567v15.312c0 3.008.286 4.63 4.854 4.63 4.854 0 5.761-1.24 5.761-5.056V11.255h6.523v23.808c0 8.107-3.477 11.35-12.474 11.35-2.805 0-4.81.045-9.664-.146zM195.572 30.72l4.81-19.465h6.237l-7.76 26.192h-6.523l-4.613-18.276-4.619 18.276h-6.618l-7.658-26.192h6.567l4.517 19.369 5-19.37h5.952zM224.987 22.898c0-6.251-1.091-7.205-5.85-7.205-4.86 0-5.907.954-5.907 7.205v2.957c0 6.2 1.047 7.154 5.907 7.154 4.759 0 5.85-.954 5.85-7.154zm6.618.095v2.716c0 9.684-3.477 12.546-12.468 12.546-9.048 0-12.518-2.862-12.518-12.546v-2.716c0-9.685 3.47-12.546 12.518-12.546 8.991 0 12.468 2.861 12.468 12.546zM241.028 37.447h-6.568V20.221c0-6.722 3.903-9.062 10.565-9.062 2.57 0 4.188 0 5.951.051l-1.046 5.437c-1.384-.05-3.192-.095-4.239-.095-4.232 0-4.663 1.526-4.663 4.718zM269.066 32.195V21.512c0-4.77-1.237-5.819-5.907-5.819-4.854 0-5.71 1.19-5.71 7.059V24.9c0 6.2 1.002 7.294 5.805 7.294zm-6.002 5.252c-9.372 0-12.227-3.294-12.227-12.45v-2.1c0-8.635 2.855-12.45 11.516-12.45 2.855 0 5.425.712 6.713 1.717V-.001h6.516v32.724c0 3.433-1.281 4.724-5.374 4.724zM292.435 21.556c6.09.572 7.563 3.917 7.563 7.446v.764c0 5.055-3.47 7.777-10.99 7.777-2.57 0-7.474.095-11.471-.096l.996-5.348c3.426.051 7.665.096 10.76.096 3.332 0 4.379-.617 4.379-2.48 0-1.476-.527-2.29-3.192-2.525l-5.52-.477c-5.285-.381-7.284-3.675-7.284-7.255v-.763c0-4.77 3.001-7.536 10.71-7.536 2.856 0 5.997.051 11.04.096l-.995 5.341c-5.952-.14-8.566-.095-10.615-.095-2.95 0-3.947.527-3.947 2.149 0 1.57.476 2.194 3.28 2.43z"/></svg>